<?xml version="1.0" standalone="no"?>
<!DOCTYPE svg PUBLIC "-//W3C//DTD SVG 20010904//EN"
 "http://www.w3.org/TR/2001/REC-SVG-20010904/DTD/svg10.dtd">
<svg version="1.0" xmlns="http://www.w3.org/2000/svg"
 width="378.000000pt" height="378.000000pt" viewBox="0 0 378.000000 378.000000"
 preserveAspectRatio="xMidYMid meet">
<metadata>
Created by potrace 1.11, written by Peter Selinger 2001-2013
</metadata>
<g transform="translate(0.000000,378.000000) scale(0.100000,-0.100000)"
fill="#000000" stroke="none">
<path d="M134 3754 c-42 -28 -64 -52 -92 -99 -16 -28 -17 -133 -20 -1730 -3
-1890 -7 -1758 65 -1830 77 -77 -98 -70 1798 -73 1847 -2 1742 -5 1818 52 18
14 43 45 55 69 l22 44 0 1717 c0 1889 5 1755 -62 1817 -69 63 63 59 -1823 59
l-1722 0 -39 -26z m104 -145 c-15 -6 -31 -22 -37 -37 -6 -17 -10 -21 -10 -9
-1 22 34 57 57 56 11 0 7 -4 -10 -10z m3362 -9 c11 -11 20 -28 19 -37 0 -12
-4 -8 -10 9 -6 15 -22 31 -37 37 -17 6 -21 10 -9 10 9 1 26 -8 37 -19z m-3391
-3385 c0 -5 -4 -3 -9 5 -5 8 -9 22 -9 30 0 16 17 -16 18 -35z m3411 30 c0 -21
-36 -55 -57 -54 -12 0 -8 4 10 11 16 6 30 20 33 34 7 27 14 32 14 9z m-3369
-53 c-7 -2 -18 1 -23 6 -8 8 -4 9 13 5 13 -4 18 -8 10 -11z"/>
</g>
</svg>
